Coordinates
version=1
nRows=11
nColumns=40
inDegrees=yes

Units are S.I. units (second, meters, Newtons, ...)
Angles are in degrees.

endheader
time	pelvis_tilt	pelvis_list	pelvis_rotation	pelvis_tx	pelvis_ty	pelvis_tz	hip_flexion_r	hip_adduction_r	hip_rotation_r	knee_angle_r	knee_angle_r_beta	ankle_angle_r	subtalar_angle_r	mtp_angle_r	hip_flexion_l	hip_adduction_l	hip_rotation_l	knee_angle_l	knee_angle_l_beta	ankle_angle_l	subtalar_angle_l	mtp_angle_l	lumbar_extension	lumbar_bending	lumbar_rotation	arm_flex_r	arm_add_r	arm_rot_r	elbow_flex_r	pro_sup_r	wrist_flex_r	wrist_dev_r	arm_flex_l	arm_add_l	arm_rot_l	elbow_flex_l	pro_sup_l	wrist_flex_l	wrist_dev_l
     40.55364286	     -5.42484572	     -3.84188284	      8.32982574	      0.89908263	      0.91640586	      0.51247398	      3.76034316	      2.05198771	    -13.45376754	     17.00802879	     17.00802879	     19.69432418	     -5.43545496	     -1.59261686	     29.42993773	     -6.04243550	      1.92761505	     19.59288608	     19.59288608	      3.53915416	     -4.04208808	     -1.10667939	     -8.15680870	      3.16554091	      1.67948469	     55.03972709	    -19.21813448	     -8.10090919	     76.91671961	     44.93901533	      0.00000000	      0.00000000	    -11.25371654	     -7.71855136	      6.65994815	     26.04881726	     44.18581042	      0.00000000	      0.00000000
     40.57228571	     -5.51265893	     -4.07138669	      8.21699995	      0.89927211	      0.91585221	      0.50942897	      3.14455628	      2.19575280	    -13.46041384	     16.40280062	     16.40280062	     19.72463219	     -5.08124983	     -1.49754138	     29.67849070	     -6.13270912	      2.01381089	     20.70410543	     20.70410543	      3.52478141	     -4.85294530	     -1.52596118	     -8.03244473	      3.09617478	      1.57941115	     56.01220069	    -18.97067640	     -8.19141659	     78.10191213	     44.91206554	      0.00000000	      0.00000000	    -10.93906080	     -7.77431966	      6.63547055	     26.13265736	     44.21175097	      0.00000000	      0.00000000
     40.59092857	     -5.59198264	     -4.27175888	      8.08861251	      0.89968935	      0.91550571	      0.50635131	      2.45094947	      2.30563608	    -13.54154175	     15.69512289	     15.69512289	     19.69772725	     -4.53888763	     -1.37181598	     29.82708205	     -6.18305792	      2.22332539	     21.71295613	     21.71295613	      3.54757704	     -5.78865049	     -1.93922905	     -7.94201169	      2.98778292	      1.49055092	     56.44165028	    -18.65496220	     -8.43319445	     80.26219702	     44.86053535	      0.00000000	      0.00000000	    -10.51411799	     -7.88204361	      6.44923105	     26.44604608	     44.27763469	      0.00000000	      0.00000000
     40.60957143	     -5.63128653	     -4.34184869	      7.88146910	      0.90021769	      0.91543949	      0.50318070	      1.82455791	      2.22580850	    -13.58114127	     15.24790223	     15.24790223	     19.67819933	     -3.97982376	     -1.24020171	     29.80228971	     -6.10138231	      2.46671923	     22.58130580	     22.58130580	      3.68241861	     -6.85869495	     -2.03992279	     -7.94069996	      2.73416736	      1.87872378	     56.26624790	    -18.86333115	     -9.03689842	     83.19079535	     44.80515265	      0.00000000	      0.00000000	     -9.81100635	     -8.04066065	      5.90473461	     27.11695711	     44.43028592	      0.00000000	      0.00000000
     40.62821429	     -5.67771236	     -4.38592902	      7.59017999	      0.90075357	      0.91548485	      0.50009078	      1.35197734	      2.09496702	    -13.44389137	     15.06331191	     15.06331191	     19.58296206	     -3.74967608	     -1.14538461	     29.77632465	     -6.06676606	      2.50713633	     23.45550000	     23.45550000	      4.04129349	     -7.54403692	     -2.19020022	     -7.83525471	      2.49577955	      1.97838276	     56.73385924	    -18.61436434	     -9.02904216	     83.85802954	     44.78854005	      0.00000000	      0.00000000	     -9.05658047	     -8.22667800	      5.77413601	     27.42816261	     44.47216452	      0.00000000	      0.00000000
     40.64685714	     -5.74517673	     -4.45381915	      7.35741665	      0.90132196	      0.91578330	      0.49681898	      0.89729340	      1.95289808	    -13.49011346	     14.86281201	     14.86281201	     19.42128587	     -3.28153687	     -0.97029583	     29.66752152	     -5.91136445	      2.96215730	     24.11551715	     24.11551715	      4.62760815	     -8.56372327	     -1.43360995	     -7.80312666	      2.29959058	      2.36024856	     56.22195029	    -18.73242165	     -9.46241912	     86.74910191	     44.73006605	      0.00000000	      0.00000000	     -8.17781937	     -8.37679735	      4.81755072	     28.50870431	     44.68187564	      0.00000000	      0.00000000
     40.66550000	     -5.84116771	     -4.49672790	      7.04186654	      0.90180305	      0.91619558	      0.49374248	      0.65779433	      1.76618167	    -13.31906494	     14.97611393	     14.97611393	     19.17915429	     -3.16225337	     -0.89959521	     29.45450131	     -5.86670288	      2.94894690	     24.50375072	     24.50375072	      5.09830184	     -8.89661576	     -1.59030180	     -7.61961311	      2.07893872	      2.41451584	     56.35069813	    -18.38747649	     -9.32896664	     86.96419016	     44.72055309	      0.00000000	      0.00000000	     -7.17912820	     -8.62638969	      4.71366862	     28.88902293	     44.71674851	      0.00000000	      0.00000000
     40.68414286	     -5.77310281	     -4.54708594	      6.67505627	      0.90218899	      0.91680728	      0.49060444	      0.47209219	      1.53237237	    -13.12258634	     15.50368049	     15.50368049	     18.96809722	     -3.13010557	     -0.93822647	     29.16033635	     -5.81859757	      3.01490576	     25.07093557	     25.07093557	      5.68228025	     -9.54251344	     -1.47745107	     -7.71718484	      2.00758067	      2.59166460	     56.45718802	    -18.11819665	     -9.26984558	     87.90088382	     44.69458952	      0.00000000	      0.00000000	     -6.15398711	     -8.81331639	      4.31473669	     29.62691712	     44.80268283	      0.00000000	      0.00000000
     40.70278571	     -5.88569039	     -4.64662436	      6.38360171	      0.90254822	      0.91755467	      0.48741421	      0.39160755	      1.35761894	    -13.01160983	     15.80679251	     15.80679251	     18.52123683	     -3.07136498	     -0.85679574	     28.83772387	     -5.79366173	      3.01223489	     25.16016784	     25.16016784	      6.21049543	     -9.76671996	     -1.59169946	     -7.54804510	      1.93857171	      2.50778464	     56.28737152	    -17.79603838	     -9.12522194	     88.07009234	     44.68464650	      0.00000000	      0.00000000	     -5.08930737	     -9.06676384	      4.18928984	     30.08900366	     44.83979053	      0.00000000	      0.00000000
     40.72142857	     -5.97666432	     -4.46155988	      6.00935687	      0.90252629	      0.91822205	      0.48419624	      0.94116748	      0.72012135	    -12.67291259	     17.39162701	     17.39162701	     18.33940441	     -3.64887063	     -1.33833112	     28.44656627	     -5.46965000	      2.92639417	     25.24784364	     25.24784364	      6.76667424	    -10.24727981	     -0.96301247	     -7.54303409	      1.61946810	      2.95110669	     55.61939375	    -17.78401673	     -9.10715914	     89.87709618	     44.63647041	      0.00000000	      0.00000000	     -3.86832164	     -9.33622001	      3.03549715	     31.77667145	     45.04130329	      0.00000000	      0.00000000
     40.74007143	     -5.96119135	     -4.49494258	      5.71195753	      0.90277263	      0.91920171	      0.48096777	      1.09198168	      0.41688395	    -12.37860661	     18.36083633	     18.36083633	     17.80911841	     -4.03436935	     -1.87605638	     27.95705338	     -5.39072241	      2.81515515	     25.30101680	     25.30101680	      7.42986322	    -10.37595635	     -0.44852714	     -7.52433353	      1.60408135	      3.24170391	     54.70266373	    -17.77473713	     -9.14524487	     91.02928212	     44.61747912	      0.00000000	      0.00000000	     -2.70806166	     -9.40110834	      1.57072515	     33.24526192	     45.28109767	      0.00000000	      0.00000000
